<?xml version="1.0" encoding="UTF-8" standalone="no"?>
<svg
   xmlns:dc="http://purl.org/dc/elements/1.1/"
   xmlns:cc="http://creativecommons.org/ns#"
   xmlns:rdf="http://www.w3.org/1999/02/22-rdf-syntax-ns#"
   xmlns:svg="http://www.w3.org/2000/svg"
   xmlns="http://www.w3.org/2000/svg"
   id="svg8"
   version="1.1"
   viewBox="0 0 63.809792 69.067375"
   height="69.067375mm"
   width="63.809792mm">
  <defs
     id="defs2" />
  <metadata
     id="metadata5">
    <rdf:RDF>
      <cc:Work
         rdf:about="">
        <dc:format>image/svg+xml</dc:format>
        <dc:type
           rdf:resource="http://purl.org/dc/dcmitype/StillImage" />
        <dc:title></dc:title>
      </cc:Work>
    </rdf:RDF>
  </metadata>
  <g
     transform="translate(-84.688032,-22.632257)"
     id="layer1">
    <path
       id="path21"
       d="m 125.85169,89.781405 c 0.89219,-1.055026 1.80791,-2.275417 2.03492,-2.71198 0.22702,-0.436562 0.92092,-1.508326 1.542,-2.381699 1.48734,-2.091516 3.6602,-6.269313 4.19198,-8.060015 1.21968,-4.107117 -0.30098,-8.746358 -3.05226,-9.31183 -1.45188,-0.298405 -2.48154,0.04211 -7.41795,2.453184 -2.63319,1.286119 -4.89059,2.274766 -5.01642,2.196994 -0.12584,-0.07777 -0.2288,-0.0083 -0.2288,0.154409 0,0.162697 -0.11906,0.222228 -0.26458,0.132291 -0.14552,-0.08994 -0.26459,-0.05324 -0.26459,0.08155 0,0.479639 -7.96581,3.218648 -12.83229,4.412326 -1.60073,0.392634 -4.31058,0.91567 -6.021889,1.162296 l -3.11148,0.448416 -0.11804,2.503953 c -0.13913,2.951525 -0.71941,5.101034 -1.5304,5.669079 -1.47081,1.030197 -4.99222,-0.1265 -6.98168,-2.293313 -1.35394,-1.474642 -1.60555,-1.938033 -1.96672,-3.622117 -0.51064,-2.381027 0.43299,-5.104648 4.77634,-13.786151 2.69201,-5.380804 7.35403,-13.449138 8.36617,-14.47892 0.17499,-0.178041 0.57766,-0.743588 0.89482,-1.256771 0.31717,-0.51318 0.68602,-0.933058 0.81967,-0.933058 0.13365,0 0.2136,-0.0893 0.17767,-0.198438 -0.12098,-0.367464 3.587429,-5.652988 5.505649,-7.847088 2.076,-2.374586 5.18132,-5.558566 6.895,-7.069679 1.08613,-0.957733 1.08897,-0.965229 1.20513,-3.178278 0.0953,-1.816584 0.25697,-2.476507 0.89255,-3.644281 0.93519,-1.718244 1.98459,-2.278581 3.81552,-2.037336 1.16644,0.153691 2.0226,0.804843 2.78586,2.118768 0.24377,0.419646 0.40139,0.393302 2.00379,-0.334919 0.95657,-0.434716 2.47031,-1.03668 3.36387,-1.337698 0.89355,-0.301019 3.25901,-1.323902 5.25656,-2.273075 l 3.63191,-1.725768 1.15849,1.130042 c 5.58893,5.451733 9.78994,13.480706 11.49254,21.96455 0.85706,4.270661 0.85706,11.474905 0,15.745566 -2.51483,12.531113 -9.73219,22.667636 -20.56051,28.876483 -1.29563,0.742907 -2.51529,1.350737 -2.71035,1.350737 -0.19505,0 0.37533,-0.863207 1.26752,-1.918233 z M 103.18486,64.082738 c 1.28973,-0.538884 2.0203,-1.608486 2.0203,-2.957859 0,-2.970021 -3.79044,-4.10474 -5.321969,-1.593204 -1.03034,1.68964 -0.36886,3.742171 1.463069,4.539795 1.01267,0.440915 0.81324,0.439692 1.8386,0.01127 z"
       style="fill:#000000;stroke-width:0.26458332" />
  </g>
</svg>
